<svg width="20" height="20" viewBox="0 0 20 20" fill="none" xmlns="http://www.w3.org/2000/svg">
<path d="M7.375 5.5C7.375 5.7225 7.30902 5.94001 7.1854 6.12502C7.06179 6.31002 6.88609 6.45422 6.68052 6.53936C6.47495 6.62451 6.24875 6.64679 6.03052 6.60338C5.81229 6.55998 5.61184 6.45283 5.4545 6.2955C5.29717 6.13816 5.19002 5.93771 5.14662 5.71948C5.10321 5.50125 5.12549 5.27505 5.21064 5.06948C5.29578 4.86391 5.43998 4.68821 5.62498 4.5646C5.80999 4.44098 6.0275 4.375 6.25 4.375C6.54837 4.375 6.83452 4.49353 7.0455 4.7045C7.25647 4.91548 7.375 5.20163 7.375 5.5ZM19.375 2.125V17.875C19.375 18.2728 19.217 18.6544 18.9357 18.9357C18.6544 19.217 18.2728 19.375 17.875 19.375H2.125C1.72718 19.375 1.34564 19.217 1.06434 18.9357C0.783035 18.6544 0.625 18.2728 0.625 17.875V2.125C0.625 1.72718 0.783035 1.34564 1.06434 1.06434C1.34564 0.783035 1.72718 0.625 2.125 0.625H17.875C18.2728 0.625 18.6544 0.783035 18.9357 1.06434C19.217 1.34564 19.375 1.72718 19.375 2.125ZM17.875 17.875V2.125H2.125V17.875H17.875ZM6.25 7.75C6.05109 7.75 5.86032 7.82902 5.71967 7.96967C5.57902 8.11032 5.5 8.30109 5.5 8.5V14.5C5.5 14.6989 5.57902 14.8897 5.71967 15.0303C5.86032 15.171 6.05109 15.25 6.25 15.25C6.44891 15.25 6.63968 15.171 6.78033 15.0303C6.92098 14.8897 7 14.6989 7 14.5V8.5C7 8.30109 6.92098 8.11032 6.78033 7.96967C6.63968 7.82902 6.44891 7.75 6.25 7.75ZM11.875 7.75C11.1998 7.74996 10.5401 7.95244 9.98125 8.33125C9.94024 8.15129 9.83431 7.99277 9.68373 7.88603C9.53315 7.77928 9.34849 7.73182 9.1651 7.75271C8.98171 7.7736 8.81247 7.86139 8.68976 7.99926C8.56704 8.13714 8.49948 8.31542 8.5 8.5V14.5C8.5 14.6989 8.57902 14.8897 8.71967 15.0303C8.86032 15.171 9.05109 15.25 9.25 15.25C9.44891 15.25 9.63968 15.171 9.78033 15.0303C9.92098 14.8897 10 14.6989 10 14.5V11.125C10 10.6277 10.1975 10.1508 10.5492 9.79917C10.9008 9.44754 11.3777 9.25 11.875 9.25C12.3723 9.25 12.8492 9.44754 13.2008 9.79917C13.5525 10.1508 13.75 10.6277 13.75 11.125V14.5C13.75 14.6989 13.829 14.8897 13.9697 15.0303C14.1103 15.171 14.3011 15.25 14.5 15.25C14.6989 15.25 14.8897 15.171 15.0303 15.0303C15.171 14.8897 15.25 14.6989 15.25 14.5V11.125C15.25 10.2299 14.8944 9.37145 14.2615 8.73851C13.6285 8.10558 12.7701 7.75 11.875 7.75Z" fill="#F2F2F2"/>
</svg>
