<svg width="20" height="20" fill="none" xmlns="http://www.w3.org/2000/svg"><path d="M7.375 5.5a1.125 1.125 0 1 1-2.25 0 1.125 1.125 0 0 1 2.25 0Zm12-3.375v15.75a1.5 1.5 0 0 1-1.5 1.5H2.125a1.5 1.5 0 0 1-1.5-1.5V2.125a1.5 1.5 0 0 1 1.5-1.5h15.75a1.5 1.5 0 0 1 1.5 1.5Zm-1.5 15.75V2.125H2.125v15.75h15.75ZM6.25 7.75a.75.75 0 0 0-.75.75v6a.75.75 0 1 0 1.5 0v-6a.75.75 0 0 0-.75-.75Zm5.625 0c-.675 0-1.335.202-1.894.581A.75.75 0 0 0 8.5 8.5v6a.75.75 0 1 0 1.5 0v-3.375a1.875 1.875 0 1 1 3.75 0V14.5a.75.75 0 1 0 1.5 0v-3.375a3.375 3.375 0 0 0-3.375-3.375Z" fill="#F2F2F2"/></svg>