<svg width="24" height="24" fill="none" xmlns="http://www.w3.org/2000/svg"><path d="M9.375 7.5a1.125 1.125 0 1 1-2.25 0 1.125 1.125 0 0 1 2.25 0Zm12-3.375v15.75a1.5 1.5 0 0 1-1.5 1.5H4.125a1.5 1.5 0 0 1-1.5-1.5V4.125a1.5 1.5 0 0 1 1.5-1.5h15.75a1.5 1.5 0 0 1 1.5 1.5Zm-1.5 15.75V4.125H4.125v15.75h15.75ZM8.25 9.75a.75.75 0 0 0-.75.75v6a.75.75 0 1 0 1.5 0v-6a.75.75 0 0 0-.75-.75Zm5.625 0c-.675 0-1.335.202-1.894.581a.75.75 0 0 0-1.481.169v6a.75.75 0 1 0 1.5 0v-3.375a1.875 1.875 0 1 1 3.75 0V16.5a.75.75 0 1 0 1.5 0v-3.375a3.375 3.375 0 0 0-3.375-3.375Z" fill="#000"/></svg>